<?xml version="1.0" encoding="UTF-8"?>
<svg version="1.1" xmlns="http://www.w3.org/2000/svg" width="512" height="512">
<path d="M0 0 C1.875 1.6875 1.875 1.6875 3 4 C2.84550235 7.86776867 2.35911143 9.59166065 -0.22265625 12.52734375 C-1.62837891 13.72037109 -1.62837891 13.72037109 -3.0625 14.9375 C-3.56273682 15.37006104 -4.06297363 15.80262207 -4.57836914 16.24829102 C-6.04186522 17.51099327 -7.52064947 18.75591007 -9 20 C-10.31516917 21.14276872 -11.62800257 22.28823643 -12.9375 23.4375 C-13.57429688 23.99179687 -14.21109375 24.54609375 -14.8671875 25.1171875 C-19.08595012 28.84144315 -23.21776289 32.66099598 -27.35058594 36.47998047 C-28.9706652 37.97296648 -30.59819686 39.45746871 -32.2265625 40.94140625 C-40.69594438 48.70652936 -48.86753307 56.76041311 -57 64.875 C-57.81384659 65.68496429 -57.81384659 65.68496429 -58.64413452 66.5112915 C-64.06502257 71.91176287 -69.41905747 77.32473922 -74.39453125 83.14501953 C-77.92261567 87.22141634 -81.68773057 91.08684134 -85.39453125 95 C-89.70894808 99.57346049 -93.89337977 104.23928157 -98 109 C-98.49371094 109.57153809 -98.98742187 110.14307617 -99.49609375 110.73193359 C-102.4951521 114.21269002 -105.47878094 117.70669373 -108.46240234 121.20068359 C-109.45379386 122.3608226 -110.44622904 123.52007095 -111.43994141 124.67822266 C-117.5336366 131.78076532 -123.42620474 139.00691534 -129.17578125 146.390625 C-131.61597762 149.52105567 -134.09451283 152.61893213 -136.58374023 155.71044922 C-141.75019245 162.12820913 -146.80786246 168.60760245 -151.69970703 175.23876953 C-153.21109018 177.28591899 -154.72879578 179.32832462 -156.24609375 181.37109375 C-163.40781933 191.03146581 -170.45191583 200.76462339 -177.33837891 210.62304688 C-179.1940996 213.27765996 -181.05627392 215.92769859 -182.91796875 218.578125 C-190.34941309 229.18176364 -197.64680126 239.84155351 -204.58544922 250.77441406 C-206.1241411 253.19531761 -207.67296702 255.60956003 -209.22265625 258.0234375 C-223.7385094 280.6747995 -237.72646706 303.59779543 -251 327 C-251.58491211 328.02947754 -252.16982422 329.05895508 -252.77246094 330.11962891 C-273.41283077 366.51367756 -293.26088146 403.55149466 -310.56640625 441.66015625 C-315.56987571 452.67023804 -315.56987571 452.67023804 -317.875 454.4375 C-320.64374853 455.17040402 -322.29031263 454.90322912 -325 454 C-327.85859623 451.66285066 -329.08597871 449.02905554 -330.58203125 445.69140625 C-331.09064697 444.57386963 -331.5992627 443.45633301 -332.12329102 442.30493164 C-332.39650177 441.69876007 -332.66971252 441.0925885 -332.95120239 440.4680481 C-345.88196107 411.8598384 -359.66152508 383.29960777 -375.65771484 356.27001953 C-376.98154297 354.03121379 -378.28429665 351.78135616 -379.58203125 349.52734375 C-396.25513921 320.6815644 -415.09167743 293.13512978 -437 268 C-437.67675781 267.21109375 -438.35351562 266.4221875 -439.05078125 265.609375 C-450.66205924 252.35222654 -463.25161206 239.37923657 -477.62890625 229.125 C-483.72655412 224.69728699 -483.72655412 224.69728699 -485.25 220.8125 C-484.95418637 217.48459662 -484.48187933 216.2336914 -482 214 C-455.91652682 206.71343415 -410.33914917 231.25720501 -388.32519531 243.48583984 C-363.59265682 257.62629509 -338.08236556 276.13584466 -322 300 C-319.08024066 296.52561389 -316.79882529 293.04128883 -314.625 289.0625 C-291.41410169 247.58950588 -261.4063887 208.45925526 -229.26953125 173.48828125 C-227.28623448 171.31382334 -225.35370316 169.10836783 -223.4375 166.875 C-220.19527167 163.13690146 -216.70476776 159.68851457 -213.18359375 156.21484375 C-211.22025329 154.22340539 -209.37920331 152.18697422 -207.5625 150.0625 C-201.56650212 143.09492839 -194.97683552 136.74679094 -187.99609375 130.77734375 C-185.73867374 128.76731223 -183.62264287 126.65167047 -181.5 124.5 C-178.14743221 121.10731601 -174.70524318 117.90899316 -171.0859375 114.8046875 C-168.74974499 112.78348724 -166.47035149 110.70621161 -164.1875 108.625 C-158.9414314 103.89230814 -153.49222172 99.44200935 -148 95 C-146.31245219 93.60422447 -144.62495307 92.20839007 -142.9375 90.8125 C-123.96969988 75.31540374 -104.31311491 60.68354642 -84 47 C-82.94329102 46.28529541 -82.94329102 46.28529541 -81.86523438 45.55615234 C-62.7267809 32.62534061 -43.12112603 20.56640378 -23.20361328 8.88037109 C-21.0066654 7.59086549 -18.81246281 6.29667462 -16.62060547 4.99853516 C-15.01209717 4.04986572 -15.01209717 4.04986572 -13.37109375 3.08203125 C-12.41001709 2.51331299 -11.44894043 1.94459473 -10.45874023 1.35864258 C-6.55727328 -0.79721718 -4.25143109 -1.38171511 0 0 Z " fill="#000000" transform="translate(497,29)"/>
</svg>
