<!-- SVG sprite: icons for mobile buttons -->
<!-- Place this file contents inline into HTML (right after <body>) -->

<svg xmlns="http://www.w3.org/2000/svg" style="display:none" aria-hidden="true">
  <!-- CIRCLE -->
  <symbol id="icon-circle" viewBox="0 0 24 24">
    <circle
      cx="12"
      cy="12"
      r="9"
      fill="none"
      stroke="currentColor"
      stroke-width="2"
    />
  </symbol>

  <!-- DASH (dashed circle) -->
  <symbol id="icon-dash" viewBox="0 0 24 24">
    <path
      d="M10.1 2.18a9.9 9.9 0 0 1 3.8 0
         m3.7 1.53a10 10 0 0 1 2.69 2.7
         m1.53 3.69a9.9 9.9 0 0 1 0 3.8
         m-1.53 3.7a10 10 0 0 1-2.7 2.69
         m-3.69 1.53a9.9 9.9 0 0 1-3.8 0
         m-3.7-1.53a10 10 0 0 1-2.69-2.7
         M2.18 13.9a9.9 9.9 0 0 1 0-3.8
         m1.53-3.7a10 10 0 0 1 2.7-2.69"
      fill="none"
      stroke="currentColor"
      stroke-width="2"
      stroke-linecap="round"
      stroke-linejoin="round"
    />
  </symbol>

  <!-- STAR (reused from marker geometry) -->
  <symbol id="icon-star" viewBox="0 0 480 519">
    <g
      transform="translate(0,519) scale(0.1,-0.1)"
      vector-effect="non-scaling-stroke"
      fill="none"
      stroke="currentColor"
      stroke-width="120"
    >
      <path d="M1741 4489 c-1 -3 5 -106 13 -230 8 -123 17 -278 21 -344 3 -66 13
-236 21 -378 9 -142 13 -264 10 -272 -7 -18 -82 -20 -219 -5 -51 5 -182 14
-292 20 -110 7 -234 15 -275 20 -102 12 -340 24 -340 18 0 -5 122 -125 219
-218 55 -51 379 -366 504 -488 59 -58 107 -111 107 -117 0 -14 -455 -465 -808
-803 -13 -13 -22 -26 -19 -28 3 -3 124 4 269 15 238 19 346 26 721 49 65 4
123 5 128 1 7 -4 8 -42 4 -105 -3 -54 -14 -261 -25 -459 -11 -198 -22 -389
-25 -425 -13 -185 -16 -260 -12 -260 2 0 82 98 178 217 95 120 176 220 179
223 3 3 44 52 90 110 46 58 97 121 114 141 17 19 65 79 106 132 47 62 81 96
91 95 15 -3 81 -79 247 -287 37 -46 90 -111 117 -145 28 -34 84 -104 125 -156
41 -52 77 -97 80 -100 5 -4 60 -72 163 -200 l27 -35 -5 110 c-3 61 -10 169
-15 240 -5 72 -12 177 -15 235 -3 58 -12 231 -21 384 -17 311 -19 300 51 292
22 -3 117 -10 210 -16 94 -6 318 -22 499 -36 180 -13 337 -24 348 -24 20 0 24
-4 -207 217 -122 117 -625 614 -625 618 0 1 53 54 117 116 64 63 163 159 219
214 181 179 486 470 495 473 23 9 5 22 -28 21 -79 -3 -460 -29 -493 -34 -19
-2 -93 -7 -165 -10 -71 -4 -174 -10 -229 -16 -146 -14 -193 -12 -200 7 -3 9
-4 19 -2 22 2 4 7 79 10 167 7 164 23 488 31 630 2 44 7 139 10 210 3 72 8
140 11 153 10 51 -14 26 -181 -184 -38 -49 -106 -132 -150 -184 -44 -53 -94
-114 -111 -136 -140 -174 -189 -234 -217 -268 -17 -21 -41 -51 -52 -67 -11
-16 -29 -32 -39 -35 -20 -7 -24 -4 -76 66z" />
    </g>
  </symbol>
</svg>

<!-- TEMP PREVIEW -->
<svg viewBox="0 0 24 24" width="48" height="48">
  <use href="#icon-circle"></use>
</svg>
