<?xml version="1.0" standalone="no"?>
<!DOCTYPE svg PUBLIC "-//W3C//DTD SVG 20010904//EN"
 "http://www.w3.org/TR/2001/REC-SVG-20010904/DTD/svg10.dtd">
<svg version="1.0" xmlns="http://www.w3.org/2000/svg"
 width="480.000000pt" height="519.000000pt" viewBox="0 0 480.000000 519.000000"
 preserveAspectRatio="xMidYMid meet">

<g transform="translate(0.000000,519.000000) scale(0.100000,-0.100000)"
fill="#000000" stroke="none">
<path d="M1741 4489 c-1 -3 5 -106 13 -230 8 -123 17 -278 21 -344 3 -66 13
-236 21 -378 9 -142 13 -264 10 -272 -7 -18 -82 -20 -219 -5 -51 5 -182 14
-292 20 -110 7 -234 15 -275 20 -102 12 -340 24 -340 18 0 -5 122 -125 219
-218 55 -51 379 -366 504 -488 59 -58 107 -111 107 -117 0 -14 -455 -465 -808
-803 -13 -13 -22 -26 -19 -28 3 -3 124 4 269 15 238 19 346 26 721 49 65 4
123 5 128 1 7 -4 8 -42 4 -105 -3 -54 -14 -261 -25 -459 -11 -198 -22 -389
-25 -425 -13 -185 -16 -260 -12 -260 2 0 82 98 178 217 95 120 176 220 179
223 3 3 44 52 90 110 46 58 97 121 114 141 17 19 65 79 106 132 47 62 81 96
91 95 15 -3 81 -79 247 -287 37 -46 90 -111 117 -145 28 -34 84 -104 125 -156
41 -52 77 -97 80 -100 5 -4 60 -72 163 -200 l27 -35 -5 110 c-3 61 -10 169
-15 240 -5 72 -12 177 -15 235 -3 58 -12 231 -21 384 -17 311 -19 300 51 292
22 -3 117 -10 210 -16 94 -6 318 -22 499 -36 180 -13 337 -24 348 -24 20 0 24
-4 -207 217 -122 117 -625 614 -625 618 0 1 53 54 117 116 64 63 163 159 219
214 181 179 486 470 495 473 23 9 5 22 -28 21 -79 -3 -460 -29 -493 -34 -19
-2 -93 -7 -165 -10 -71 -4 -174 -10 -229 -16 -146 -14 -193 -12 -200 7 -3 9
-4 19 -2 22 2 4 7 79 10 167 7 164 23 488 31 630 2 44 7 139 10 210 3 72 8
140 11 153 10 51 -14 26 -181 -184 -38 -49 -106 -132 -150 -184 -44 -53 -94
-114 -111 -136 -140 -174 -189 -234 -217 -268 -17 -21 -41 -51 -52 -67 -11
-16 -29 -32 -39 -35 -20 -7 -24 -4 -76 66 -14 18 -30 38 -35 44 -6 6 -63 76
-127 156 -64 80 -130 160 -145 179 -15 18 -54 66 -86 105 -32 39 -66 80 -75
91 -10 11 -33 40 -52 65 -19 25 -42 54 -52 65 -58 71 -85 104 -100 126 -9 13
-17 21 -17 18z m346 -650 c81 -99 159 -195 173 -212 41 -52 232 -292 237 -297
3 -3 10 2 16 11 26 34 74 94 110 137 22 25 56 68 78 96 21 28 56 72 76 97 21
25 94 114 161 198 68 83 128 151 134 151 13 0 7 -193 -17 -607 -10 -172 -15
-316 -12 -319 4 -4 73 -2 154 5 224 17 601 41 661 41 28 0 52 -4 52 -9 0 -5
-73 -81 -162 -168 -162 -158 -438 -426 -464 -451 -8 -7 -14 -15 -14 -16 0 -3
223 -224 459 -454 141 -137 183 -184 177 -197 -3 -10 -12 -15 -21 -11 -8 3
-124 13 -258 21 -133 9 -318 22 -412 29 -93 8 -172 12 -174 10 -4 -4 17 -481
24 -554 12 -121 17 -390 7 -390 -6 0 -62 64 -125 142 -64 79 -145 179 -181
223 -37 44 -84 103 -105 131 -22 28 -46 57 -53 65 -8 8 -33 39 -57 69 -24 30
-47 55 -51 55 -7 0 -68 -72 -175 -205 -16 -21 -77 -95 -135 -165 -58 -70 -116
-142 -130 -160 -73 -95 -124 -155 -133 -155 -6 0 -8 48 -4 133 10 233 26 540
31 597 7 73 10 210 5 214 -4 2 -72 -2 -279 -18 -41 -4 -106 -8 -145 -11 -96
-6 -411 -27 -432 -29 -9 0 -18 4 -20 10 -3 10 601 609 633 627 8 4 14 12 14
18 0 5 -35 42 -77 82 -42 39 -111 106 -153 147 -42 41 -154 151 -249 244 -95
92 -169 171 -164 176 7 6 210 -5 693 -39 80 -6 154 -11 164 -11 21 0 21 -6 -4
465 -22 404 -23 465 -12 465 6 0 78 -81 159 -181z"/>
</g>
</svg>
